<svg id="Capa_1" enable-background="new 0 0 512 512" height="512" viewBox="0 0 512 512" width="512" xmlns="http://www.w3.org/2000/svg" xmlns:xlink="http://www.w3.org/1999/xlink"><linearGradient id="SVGID_1_" gradientUnits="userSpaceOnUse" x1="256" x2="256" y1="512" y2="0"><stop offset="0" stop-color="#00b59c"/><stop offset="1" stop-color="#9cffac"/></linearGradient><g><g><path d="m508.993 156.991c-2.834-3.772-7.276-5.991-11.993-5.991h-92.076c-7.301-50.816-51.119-90-103.924-90s-96.623 39.184-103.924 90h-78.054l-19.6-138.107c-1.049-7.396-7.381-12.893-14.851-12.893h-69.571c-8.284 0-15 6.716-15 15s6.716 15 15 15h56.55c.017.119 41.755 294.183 42.241 297.606 2.458 17.197 10.82 32.979 23.599 44.685-10.004 8.26-16.39 20.753-16.39 34.709 0 20.723 14.084 38.209 33.181 43.414-2.045 5.137-3.181 10.73-3.181 16.586 0 24.813 20.187 45 45 45s45-20.187 45-45c0-5.258-.915-10.305-2.58-15.01h125.16c-1.665 4.705-2.58 9.751-2.58 15.01 0 24.813 20.187 45 45 45s45-20.187 45-45-20.187-45-45-45h-240c-8.271 0-15-6.729-15-15s6.729-15 15-15h224.742c33.31 0 62.964-22.368 72.098-54.339l48.566-167.483c1.315-4.531.42-9.416-2.413-13.187zm-102.993 295.009c8.271 0 15 6.729 15 15s-6.729 15-15 15-15-6.729-15-15 6.729-15 15-15zm-210 0c8.271 0 15 6.729 15 15s-6.729 15-15 15-15-6.729-15-15 6.729-15 15-15zm105-361c41.355 0 75 33.645 75 75s-33.645 75-75 75-75-33.645-75-75 33.645-75 75-75zm133.011 238.363c-5.49 19.216-23.283 32.637-43.269 32.637-8.566 0-190.353 0-202.704 0-22.25 0-41.401-16.61-44.546-38.623l-20.213-142.377h73.797c7.301 50.816 51.119 90 103.924 90s96.623-39.184 103.924-90h72.108zm-163.011-148.363h15v15c0 8.284 6.716 15 15 15s15-6.716 15-15v-15h15c8.284 0 15-6.716 15-15s-6.716-15-15-15h-15v-15c0-8.284-6.716-15-15-15s-15 6.716-15 15v15h-15c-8.284 0-15 6.716-15 15s6.716 15 15 15z" fill="url(#SVGID_1_)"/></g></g></svg>